# xmcd CD database file
#
# Track frame offsets:
#	150
#	16866
#	32848
#	46253
#	66029
#	80196
#	95427
#	115163
#	132603
#	152635
#	167034
#	180315
#	192717
#	210974
#	228967
#
# Disc length: 3313 seconds
#
# Revision: 0
# Processed by: cddbd v1.5.1PL2 Copyright (c) Steve Scherf et al.
# Submitted via: CDex 1.50
#
DISCID=c30cef0f
DTITLE=Steve Passfield - Best Of Mates
DYEAR=1999
DGENRE=Country
TTITLE0=Bullocky
TTITLE1=Drivin' Man
TTITLE2=A Way Of Life
TTITLE3=Best Of Mates
TTITLE4=Gettin' Old
TTITLE5=Nannas Sugar Bowl
TTITLE6=The Last Anzac
TTITLE7=Goodbye Time
TTITLE8=Reminiscing Of The Old Days
TTITLE9=Mr Have A Chat
TTITLE10=Jambalayou
TTITLE11=Salt Creek
TTITLE12=Back Home In Derry
TTITLE13=Convict Road
TTITLE14=The Hayseed Set
EXTD=YEAR: 1999
EXTT0=
EXTT1=
EXTT2=
EXTT3=
EXTT4=
EXTT5=
EXTT6=
EXTT7=
EXTT8=
EXTT9=
EXTT10=
EXTT11=
EXTT12=
EXTT13=
EXTT14=
PLAYORDER=
